<?xml version="1.0" encoding="UTF-8"?>
<svg id="Layer_2" data-name="Layer 2" xmlns="http://www.w3.org/2000/svg" viewBox="0 0 10.44 18.56">
  <defs>
    <style>
      .cls-1 {
        fill: red;
      }
    </style>
  </defs>
  <g id="Layer_1-2" data-name="Layer 1">
    <g>
      <path class="cls-1" d="M10.44,8.42v1.14c0,1.28-.49,2.51-1.37,3.46-.87,.94-2.05,1.52-3.32,1.65v3.36c0,.29-.24,.53-.53,.53s-.53-.24-.53-.53v-3.36c-1.27-.13-2.45-.71-3.32-1.65-.88-.95-1.37-2.18-1.37-3.46v-1.14c0-.29,.24-.53,.53-.53s.53,.24,.53,.53v1.14c0,2.24,1.87,4.07,4.16,4.07s4.15-1.83,4.15-4.07v-1.14c0-.29,.24-.53,.53-.53s.53,.24,.53,.53Z"/>
      <path class="cls-1" d="M2.23,9.34V3C2.23,1.34,3.57,0,5.22,0c.83,0,1.58,.34,2.12,.88,.54,.54,.88,1.29,.88,2.12v6.34c0,1.65-1.34,2.99-2.99,2.99s-3-1.34-3-2.99Z"/>
    </g>
  </g>
</svg>