<?xml version="1.0" encoding="UTF-8"?>
<!DOCTYPE svg
PUBLIC "-//W3C//DTD SVG 1.1//EN"
     "http://www.w3.org/Graphics/SVG/1.1/DTD/svg11.dtd">
<svg version="1.1" xmlns="http://www.w3.org/2000/svg" xmlns:xlink="http://www.w3.org/1999/xlink" width="3300" height="2200">
<!--glyph: "uni100000.medium", point size: 100.0, font version: "19.0d6e1", template writer version: "123"-->
<style>.SFSymbolsPreviewWireframe {fill:none;opacity:1.0;stroke:black;stroke-width:0.5}
</style>
<g id="Notes">
<rect height="2200" id="artboard" style="fill:white;opacity:1" width="3300" x="0" y="0"/>
<line style="fill:none;stroke:black;opacity:1;stroke-width:0.5;" x1="263" x2="3036" y1="292" y2="292"/>
<text style="stroke:none;fill:black;font-family:sans-serif;font-size:13;font-weight:bold;" transform="matrix(1 0 0 1 263 322)">Weight/Scale Variations</text>
<text style="stroke:none;fill:black;font-family:sans-serif;font-size:13;text-anchor:middle;" transform="matrix(1 0 0 1 559.711 322)">Ultralight</text>
<text style="stroke:none;fill:black;font-family:sans-serif;font-size:13;text-anchor:middle;" transform="matrix(1 0 0 1 856.422 322)">Thin</text>
<text style="stroke:none;fill:black;font-family:sans-serif;font-size:13;text-anchor:middle;" transform="matrix(1 0 0 1 1153.13 322)">Light</text>
<text style="stroke:none;fill:black;font-family:sans-serif;font-size:13;text-anchor:middle;" transform="matrix(1 0 0 1 1449.84 322)">Regular</text>
<text style="stroke:none;fill:black;font-family:sans-serif;font-size:13;text-anchor:middle;" transform="matrix(1 0 0 1 1746.56 322)">Medium</text>
<text style="stroke:none;fill:black;font-family:sans-serif;font-size:13;text-anchor:middle;" transform="matrix(1 0 0 1 2043.27 322)">Semibold</text>
<text style="stroke:none;fill:black;font-family:sans-serif;font-size:13;text-anchor:middle;" transform="matrix(1 0 0 1 2339.98 322)">Bold</text>
<text style="stroke:none;fill:black;font-family:sans-serif;font-size:13;text-anchor:middle;" transform="matrix(1 0 0 1 2636.69 322)">Heavy</text>
<text style="stroke:none;fill:black;font-family:sans-serif;font-size:13;text-anchor:middle;" transform="matrix(1 0 0 1 2933.4 322)">Black</text>
<line style="fill:none;stroke:black;opacity:1;stroke-width:0.5;" x1="263" x2="3036" y1="1903" y2="1903"/>
<g transform="matrix(0.2 0 0 0.2 263 1933)">
 <path d="m46.2402 4.15039c21.5332 0 39.4531-17.8711 39.4531-39.4043s-17.9688-39.4043-39.502-39.4043c-21.4844 0-39.3555 17.8711-39.3555 39.4043s17.9199 39.4043 39.4043 39.4043Zm0-7.42188c-17.7246 0-31.8848-14.209-31.8848-31.9824s14.1113-31.9824 31.8359-31.9824c17.7734 0 32.0312 14.209 32.0312 31.9824s-14.209 31.9824-31.9824 31.9824Zm-17.9688-31.9824c0 2.14844 1.51367 3.61328 3.75977 3.61328h10.498v10.5957c0 2.19727 1.46484 3.71094 3.61328 3.71094 2.24609 0 3.71094-1.51367 3.71094-3.71094v-10.5957h10.5957c2.19727 0 3.71094-1.46484 3.71094-3.61328 0-2.19727-1.51367-3.71094-3.71094-3.71094h-10.5957v-10.5469c0-2.24609-1.46484-3.75977-3.71094-3.75977-2.14844 0-3.61328 1.51367-3.61328 3.75977v10.5469h-10.498c-2.24609 0-3.75977 1.51367-3.75977 3.71094Z"/>
</g>
<g transform="matrix(0.2 0 0 0.2 281.506 1933)">
 <path d="m58.5449 14.5508c27.2461 0 49.8047-22.6074 49.8047-49.8047 0-27.2461-22.6074-49.8047-49.8535-49.8047-27.1973 0-49.7559 22.5586-49.7559 49.8047 0 27.1973 22.6074 49.8047 49.8047 49.8047Zm0-8.30078c-23.0469 0-41.4551-18.457-41.4551-41.5039s18.3594-41.5039 41.4062-41.5039 41.5527 18.457 41.5527 41.5039-18.457 41.5039-41.5039 41.5039Zm-22.6562-41.5039c0 2.39258 1.66016 4.00391 4.15039 4.00391h14.3555v14.4043c0 2.44141 1.66016 4.15039 4.05273 4.15039 2.44141 0 4.15039-1.66016 4.15039-4.15039v-14.4043h14.4043c2.44141 0 4.15039-1.61133 4.15039-4.00391 0-2.44141-1.70898-4.15039-4.15039-4.15039h-14.4043v-14.3555c0-2.49023-1.70898-4.19922-4.15039-4.19922-2.39258 0-4.05273 1.70898-4.05273 4.19922v14.3555h-14.3555c-2.49023 0-4.15039 1.70898-4.15039 4.15039Z"/>
</g>
<g transform="matrix(0.2 0 0 0.2 304.924 1933)">
 <path d="m74.8535 28.3203c34.8145 0 63.623-28.8086 63.623-63.5742 0-34.8145-28.8574-63.623-63.6719-63.623-34.7656 0-63.5254 28.8086-63.5254 63.623 0 34.7656 28.8086 63.5742 63.5742 63.5742Zm0-9.08203c-30.1758 0-54.4434-24.3164-54.4434-54.4922 0-30.2246 24.2188-54.4922 54.3945-54.4922 30.2246 0 54.541 24.2676 54.541 54.4922 0 30.1758-24.2676 54.4922-54.4922 54.4922Zm-28.8574-54.4922c0 2.58789 1.85547 4.39453 4.58984 4.39453h19.7266v19.7754c0 2.68555 1.85547 4.58984 4.44336 4.58984 2.68555 0 4.54102-1.85547 4.54102-4.58984v-19.7754h19.7754c2.68555 0 4.58984-1.80664 4.58984-4.39453 0-2.73438-1.85547-4.58984-4.58984-4.58984h-19.7754v-19.7266c0-2.73438-1.85547-4.63867-4.54102-4.63867-2.58789 0-4.44336 1.9043-4.44336 4.63867v19.7266h-19.7266c-2.73438 0-4.58984 1.85547-4.58984 4.58984Z"/>
</g>
<text style="stroke:none;fill:black;font-family:sans-serif;font-size:13;font-weight:bold;" transform="matrix(1 0 0 1 263 1953)">Design Variations</text>
<text style="stroke:none;fill:black;font-family:sans-serif;font-size:13;" transform="matrix(1 0 0 1 263 1971)">Symbols are supported in up to nine weights and three scales.</text>
<text style="stroke:none;fill:black;font-family:sans-serif;font-size:13;" transform="matrix(1 0 0 1 263 1989)">For optimal layout with text and other symbols, vertically align</text>
<text style="stroke:none;fill:black;font-family:sans-serif;font-size:13;" transform="matrix(1 0 0 1 263 2007)">symbols with the adjacent text.</text>
<line style="fill:none;stroke:#00AEEF;stroke-width:0.5;opacity:1.0;" x1="776" x2="776" y1="1919" y2="1933"/>
<g transform="matrix(0.2 0 0 0.2 776 1933)">
 <path d="m16.5527 0.78125c2.58789 0 3.85742-0.976562 4.78516-3.71094l6.29883-17.2363h28.8086l6.29883 17.2363c0.927734 2.73438 2.19727 3.71094 4.73633 3.71094 2.58789 0 4.24805-1.5625 4.24805-4.00391 0-0.830078-0.146484-1.61133-0.537109-2.63672l-22.9004-60.9863c-1.12305-2.97852-3.125-4.49219-6.25-4.49219-3.02734 0-5.07812 1.46484-6.15234 4.44336l-22.9004 61.084c-0.390625 1.02539-0.537109 1.80664-0.537109 2.63672 0 2.44141 1.5625 3.95508 4.10156 3.95508Zm13.4766-28.3691 11.8652-32.8613h0.244141l11.8652 32.8613Z"/>
</g>
<line style="fill:none;stroke:#00AEEF;stroke-width:0.5;opacity:1.0;" x1="792.836" x2="792.836" y1="1919" y2="1933"/>
<text style="stroke:none;fill:black;font-family:sans-serif;font-size:13;font-weight:bold;" transform="matrix(1 0 0 1 776 1953)">Margins</text>
<text style="stroke:none;fill:black;font-family:sans-serif;font-size:13;" transform="matrix(1 0 0 1 776 1971)">Leading and trailing margins on the left and right side of each symbol</text>
<text style="stroke:none;fill:black;font-family:sans-serif;font-size:13;" transform="matrix(1 0 0 1 776 1989)">can be adjusted by modifying the x-location of the margin guidelines.</text>
<text style="stroke:none;fill:black;font-family:sans-serif;font-size:13;" transform="matrix(1 0 0 1 776 2007)">Modifications are automatically applied proportionally to all</text>
<text style="stroke:none;fill:black;font-family:sans-serif;font-size:13;" transform="matrix(1 0 0 1 776 2025)">scales and weights.</text>
<g transform="matrix(0.2 0 0 0.2 1289 1933)">
 <path d="m14.209 9.32617 8.49609 8.54492c4.29688 4.3457 9.22852 4.05273 13.8672-1.07422l53.4668-58.9355-4.83398-4.88281-53.0762 58.3984c-1.75781 2.00195-3.41797 2.49023-5.76172 0.146484l-5.85938-5.81055c-2.34375-2.29492-1.80664-4.00391 0.195312-5.81055l57.373-54.0039-4.88281-4.83398-57.959 54.4434c-4.93164 4.58984-5.32227 9.47266-1.02539 13.8184Zm32.0801-90.9668c-2.09961 2.05078-2.24609 4.93164-1.07422 6.88477 1.17188 1.80664 3.4668 2.97852 6.68945 2.14844 7.32422-1.70898 14.9414-2.00195 22.0703 2.68555l-2.92969 7.27539c-1.70898 4.15039-0.830078 7.08008 1.85547 9.81445l11.4746 11.5723c2.44141 2.44141 4.49219 2.53906 7.32422 2.05078l5.32227-0.976562 3.32031 3.36914-0.195312 2.7832c-0.195312 2.49023 0.439453 4.39453 2.88086 6.78711l3.80859 3.71094c2.39258 2.39258 5.46875 2.53906 7.8125 0.195312l14.5508-14.5996c2.34375-2.34375 2.24609-5.32227-0.146484-7.71484l-3.85742-3.80859c-2.39258-2.39258-4.24805-3.17383-6.64062-2.97852l-2.88086 0.244141-3.22266-3.17383 1.2207-5.61523c0.634766-2.83203-0.146484-5.0293-3.07617-7.95898l-10.9863-10.9375c-16.6992-16.6016-38.8672-16.2109-53.3203-1.75781Zm7.4707 1.85547c12.1582-8.88672 28.6133-7.37305 39.7461 3.75977l12.1582 12.0605c1.17188 1.17188 1.36719 2.09961 1.02539 3.80859l-1.61133 7.42188 7.51953 7.42188 4.93164-0.292969c1.26953-0.0488281 1.66016 0.0488281 2.63672 1.02539l2.88086 2.88086-12.207 12.207-2.88086-2.88086c-0.976562-0.976562-1.12305-1.36719-1.07422-2.68555l0.341797-4.88281-7.4707-7.42188-7.61719 1.26953c-1.61133 0.341797-2.34375 0.195312-3.56445-0.976562l-10.0098-10.0098c-1.26953-1.17188-1.41602-2.00195-0.634766-3.85742l4.39453-10.4492c-7.8125-7.27539-17.9688-10.4004-28.125-7.42188-0.78125 0.195312-1.07422-0.439453-0.439453-0.976562Z"/>
</g>
<text style="stroke:none;fill:black;font-family:sans-serif;font-size:13;font-weight:bold;" transform="matrix(1 0 0 1 1289 1953)">Exporting</text>
<text style="stroke:none;fill:black;font-family:sans-serif;font-size:13;" transform="matrix(1 0 0 1 1289 1971)">Symbols should be outlined when exporting to ensure the</text>
<text style="stroke:none;fill:black;font-family:sans-serif;font-size:13;" transform="matrix(1 0 0 1 1289 1989)">design is preserved when submitting to Xcode.</text>
<text id="template-version" style="stroke:none;fill:black;font-family:sans-serif;font-size:13;text-anchor:end;" transform="matrix(1 0 0 1 3036 1933)">Template v.5.0</text>
<text style="stroke:none;fill:black;font-family:sans-serif;font-size:13;text-anchor:end;" transform="matrix(1 0 0 1 3036 1951)">Requires Xcode 15 or greater</text>
<text id="descriptive-name" style="stroke:none;fill:black;font-family:sans-serif;font-size:13;text-anchor:end;" transform="matrix(1 0 0 1 3036 1969)">Generated from circle</text>
<text style="stroke:none;fill:black;font-family:sans-serif;font-size:13;text-anchor:end;" transform="matrix(1 0 0 1 3036 1987)">Typeset at 100.0 points</text>
<text style="stroke:none;fill:black;font-family:sans-serif;font-size:13;" transform="matrix(1 0 0 1 263 726)">Small</text>
<text style="stroke:none;fill:black;font-family:sans-serif;font-size:13;" transform="matrix(1 0 0 1 263 1156)">Medium</text>
<text style="stroke:none;fill:black;font-family:sans-serif;font-size:13;" transform="matrix(1 0 0 1 263 1586)">Large</text>
</g>
<g id="Guides">
<g id="H-reference" style="fill:#27AAE1;stroke:none;" transform="matrix(1 0 0 1 339 696)">
 <path d="M0.993654 0L3.63775 0L29.3281-67.1323L30.0303-67.1323L30.0303-70.459L28.1226-70.459ZM11.6885-24.4799L46.9815-24.4799L46.2315-26.7285L12.4385-26.7285ZM55.1196 0L57.7637 0L30.6382-70.459L29.4326-70.459L29.4326-67.1323Z"/>
</g>
<line id="Baseline-S" style="fill:none;stroke:#27AAE1;opacity:1;stroke-width:0.5;" x1="263" x2="3036" y1="696" y2="696"/>
<line id="Capline-S" style="fill:none;stroke:#27AAE1;opacity:1;stroke-width:0.5;" x1="263" x2="3036" y1="625.541" y2="625.541"/>
<g id="H-reference" style="fill:#27AAE1;stroke:none;" transform="matrix(1 0 0 1 339 1126)">
 <path d="M0.993654 0L3.63775 0L29.3281-67.1323L30.0303-67.1323L30.0303-70.459L28.1226-70.459ZM11.6885-24.4799L46.9815-24.4799L46.2315-26.7285L12.4385-26.7285ZM55.1196 0L57.7637 0L30.6382-70.459L29.4326-70.459L29.4326-67.1323Z"/>
</g>
<line id="Baseline-M" style="fill:none;stroke:#27AAE1;opacity:1;stroke-width:0.5;" x1="263" x2="3036" y1="1126" y2="1126"/>
<line id="Capline-M" style="fill:none;stroke:#27AAE1;opacity:1;stroke-width:0.5;" x1="263" x2="3036" y1="1055.54" y2="1055.54"/>
<g id="H-reference" style="fill:#27AAE1;stroke:none;" transform="matrix(1 0 0 1 339 1556)">
 <path d="M0.993654 0L3.63775 0L29.3281-67.1323L30.0303-67.1323L30.0303-70.459L28.1226-70.459ZM11.6885-24.4799L46.9815-24.4799L46.2315-26.7285L12.4385-26.7285ZM55.1196 0L57.7637 0L30.6382-70.459L29.4326-70.459L29.4326-67.1323Z"/>
</g>
<line id="Baseline-L" style="fill:none;stroke:#27AAE1;opacity:1;stroke-width:0.5;" x1="263" x2="3036" y1="1556" y2="1556"/>
<line id="Capline-L" style="fill:none;stroke:#27AAE1;opacity:1;stroke-width:0.5;" x1="263" x2="3036" y1="1485.54" y2="1485.54"/>
<line id="left-margin-Ultralight-S" style="fill:none;stroke:#00AEEF;stroke-width:0.5;opacity:1.0;" x1="515.649" x2="515.649" y1="600.785" y2="720.121"/>
<line id="right-margin-Ultralight-S" style="fill:none;stroke:#00AEEF;stroke-width:0.5;opacity:1.0;" x1="603.773" x2="603.773" y1="600.785" y2="720.121"/>
<line id="left-margin-Regular-S" style="fill:none;stroke:#00AEEF;stroke-width:0.5;opacity:1.0;" x1="1403.58" x2="1403.58" y1="600.785" y2="720.121"/>
<line id="right-margin-Regular-S" style="fill:none;stroke:#00AEEF;stroke-width:0.5;opacity:1.0;" x1="1496.11" x2="1496.11" y1="600.785" y2="720.121"/>
<line id="left-margin-Black-S" style="fill:none;stroke:#00AEEF;stroke-width:0.5;opacity:1.0;" x1="2884.57" x2="2884.57" y1="600.785" y2="720.121"/>
<line id="right-margin-Black-S" style="fill:none;stroke:#00AEEF;stroke-width:0.5;opacity:1.0;" x1="2982.23" x2="2982.23" y1="600.785" y2="720.121"/>
</g>
<g id="Symbols">
<g id="Black-S" transform="matrix(1 0 0 1 2884.57 696) translate(3 -81.25)">
<g clip-path="url(#clip0_2_17)">
<path d="M83.9303 31.6296C82.7377 26.2895 80.1273 21.824 75.8473 18.4318C72.3624 15.6756 68.3739 14.2313 63.9747 13.9265C59.2574 13.5953 54.8714 14.6023 50.8962 17.279C49.0013 18.5511 47.398 20.1279 45.9934 22.0228C45.8741 21.877 45.7814 21.7842 45.7019 21.6782C43.3167 18.5776 40.2956 16.3514 36.6516 15.0396C33.4714 13.8868 30.1852 13.6085 26.8328 14.0458C19.7966 14.9734 14.3638 18.4981 10.7464 24.7259C7.40717 30.4635 6.75789 36.7178 7.7782 43.2107C8.49374 47.716 10.1368 51.89 12.3365 55.8652C15.3974 61.404 19.3991 66.1743 23.8514 70.5735C29.4697 76.0991 35.671 80.8429 42.2302 85.1361C42.8927 85.5734 43.595 85.9576 44.2973 86.3022C45.1983 86.7394 46.1524 86.8852 47.1197 86.5142C47.769 86.2757 48.4183 85.9974 49.0013 85.6396C50.2071 84.8976 51.3732 84.0893 52.5393 83.2943C59.3236 78.5902 65.7238 73.4224 71.3156 67.2873C75.9136 62.2255 79.8226 56.7 82.3005 50.2204C84.6061 44.1913 85.3481 38.0164 83.9303 31.6561V31.6296ZM74.7873 48.3653C72.8394 52.791 70.1363 56.7 67.0488 60.3307C61.1787 67.2741 54.3016 73.0117 46.8547 78.1132C46.0199 78.6962 46.0066 78.683 45.1453 78.1132C39.1692 74.032 33.5509 69.487 28.5024 64.2662C24.6464 60.2777 21.1747 55.9977 18.5246 51.0552C16.9345 48.087 15.6491 44.9863 15.1456 41.6074C14.4168 36.6648 14.9336 31.9211 17.756 27.6808C20.2339 23.9441 23.7719 21.9698 28.1579 21.5457C33.9749 21.0024 38.4139 23.4406 41.8194 28.1181C42.3892 28.8999 42.8927 29.7214 43.4625 30.49C44.1118 31.338 44.9068 31.9343 46.0331 31.9211C46.8414 31.9211 47.5305 31.5766 48.034 30.967C48.8158 30.0262 49.5313 29.0457 50.2866 28.0784C52.0755 25.7595 54.1426 23.7851 56.8325 22.6058C62.6893 20.0351 71.3686 21.6782 75.145 29.2709C76.4701 31.9078 77.0001 34.7037 77.1327 37.6056C77.1857 41.4086 76.2714 44.9731 74.7608 48.405L74.7873 48.3653Z" fill="black"/>
</g>
<defs>
<clipPath id="clip0_2_17">
<rect width="92" height="86.7262" fill="white"/>
</clipPath>
</defs>
</g>
<g id="Regular-S" transform="matrix(1 0 0 1 1403.58 696) translate(0 -81.25)">
 <g clip-path="url(#clip0_2_17)">
<path d="M83.9303 31.6296C82.7377 26.2895 80.1273 21.824 75.8473 18.4318C72.3624 15.6756 68.3739 14.2313 63.9747 13.9265C59.2574 13.5953 54.8714 14.6023 50.8962 17.279C49.0013 18.5511 47.398 20.1279 45.9934 22.0228C45.8741 21.877 45.7814 21.7842 45.7019 21.6782C43.3167 18.5776 40.2956 16.3514 36.6516 15.0396C33.4714 13.8868 30.1852 13.6085 26.8328 14.0458C19.7966 14.9734 14.3638 18.4981 10.7464 24.7259C7.40717 30.4635 6.75789 36.7178 7.7782 43.2107C8.49374 47.716 10.1368 51.89 12.3365 55.8652C15.3974 61.404 19.3991 66.1743 23.8514 70.5735C29.4697 76.0991 35.671 80.8429 42.2302 85.1361C42.8927 85.5734 43.595 85.9576 44.2973 86.3022C45.1983 86.7394 46.1524 86.8852 47.1197 86.5142C47.769 86.2757 48.4183 85.9974 49.0013 85.6396C50.2071 84.8976 51.3732 84.0893 52.5393 83.2943C59.3236 78.5902 65.7238 73.4224 71.3156 67.2873C75.9136 62.2255 79.8226 56.7 82.3005 50.2204C84.6061 44.1913 85.3481 38.0164 83.9303 31.6561V31.6296ZM74.7873 48.3653C72.8394 52.791 70.1363 56.7 67.0488 60.3307C61.1787 67.2741 54.3016 73.0117 46.8547 78.1132C46.0199 78.6962 46.0066 78.683 45.1453 78.1132C39.1692 74.032 33.5509 69.487 28.5024 64.2662C24.6464 60.2777 21.1747 55.9977 18.5246 51.0552C16.9345 48.087 15.6491 44.9863 15.1456 41.6074C14.4168 36.6648 14.9336 31.9211 17.756 27.6808C20.2339 23.9441 23.7719 21.9698 28.1579 21.5457C33.9749 21.0024 38.4139 23.4406 41.8194 28.1181C42.3892 28.8999 42.8927 29.7214 43.4625 30.49C44.1118 31.338 44.9068 31.9343 46.0331 31.9211C46.8414 31.9211 47.5305 31.5766 48.034 30.967C48.8158 30.0262 49.5313 29.0457 50.2866 28.0784C52.0755 25.7595 54.1426 23.7851 56.8325 22.6058C62.6893 20.0351 71.3686 21.6782 75.145 29.2709C76.4701 31.9078 77.0001 34.7037 77.1327 37.6056C77.1857 41.4086 76.2714 44.9731 74.7608 48.405L74.7873 48.3653Z" fill="black"/>
</g>
<defs>
<clipPath id="clip0_2_17">
<rect width="92" height="86.7262" fill="white"/>
</clipPath>
</defs>
</g>
<g id="Ultralight-S" transform="matrix(1 0 0 1 515.649 696) translate(-2 -81.25)">
 <g clip-path="url(#clip0_2_17)">
<path d="M83.9303 31.6296C82.7377 26.2895 80.1273 21.824 75.8473 18.4318C72.3624 15.6756 68.3739 14.2313 63.9747 13.9265C59.2574 13.5953 54.8714 14.6023 50.8962 17.279C49.0013 18.5511 47.398 20.1279 45.9934 22.0228C45.8741 21.877 45.7814 21.7842 45.7019 21.6782C43.3167 18.5776 40.2956 16.3514 36.6516 15.0396C33.4714 13.8868 30.1852 13.6085 26.8328 14.0458C19.7966 14.9734 14.3638 18.4981 10.7464 24.7259C7.40717 30.4635 6.75789 36.7178 7.7782 43.2107C8.49374 47.716 10.1368 51.89 12.3365 55.8652C15.3974 61.404 19.3991 66.1743 23.8514 70.5735C29.4697 76.0991 35.671 80.8429 42.2302 85.1361C42.8927 85.5734 43.595 85.9576 44.2973 86.3022C45.1983 86.7394 46.1524 86.8852 47.1197 86.5142C47.769 86.2757 48.4183 85.9974 49.0013 85.6396C50.2071 84.8976 51.3732 84.0893 52.5393 83.2943C59.3236 78.5902 65.7238 73.4224 71.3156 67.2873C75.9136 62.2255 79.8226 56.7 82.3005 50.2204C84.6061 44.1913 85.3481 38.0164 83.9303 31.6561V31.6296ZM74.7873 48.3653C72.8394 52.791 70.1363 56.7 67.0488 60.3307C61.1787 67.2741 54.3016 73.0117 46.8547 78.1132C46.0199 78.6962 46.0066 78.683 45.1453 78.1132C39.1692 74.032 33.5509 69.487 28.5024 64.2662C24.6464 60.2777 21.1747 55.9977 18.5246 51.0552C16.9345 48.087 15.6491 44.9863 15.1456 41.6074C14.4168 36.6648 14.9336 31.9211 17.756 27.6808C20.2339 23.9441 23.7719 21.9698 28.1579 21.5457C33.9749 21.0024 38.4139 23.4406 41.8194 28.1181C42.3892 28.8999 42.8927 29.7214 43.4625 30.49C44.1118 31.338 44.9068 31.9343 46.0331 31.9211C46.8414 31.9211 47.5305 31.5766 48.034 30.967C48.8158 30.0262 49.5313 29.0457 50.2866 28.0784C52.0755 25.7595 54.1426 23.7851 56.8325 22.6058C62.6893 20.0351 71.3686 21.6782 75.145 29.2709C76.4701 31.9078 77.0001 34.7037 77.1327 37.6056C77.1857 41.4086 76.2714 44.9731 74.7608 48.405L74.7873 48.3653Z" fill="black"/>
</g>
<defs>
<clipPath id="clip0_2_17">
<rect width="92" height="86.7262" fill="white"/>
</clipPath>
</defs>
</g>
</g>
</svg>