<?xml version="1.0" encoding="UTF-8"?>
<svg id="Layer_2" data-name="Layer 2" xmlns="http://www.w3.org/2000/svg" viewBox="0 0 18.52 21.59">
  <defs>
    <style>
      .cls-1 {
        fill: red;
      }
    </style>
  </defs>
  <g id="Layer_1-2" data-name="Layer 1">
    <path class="cls-1" d="M16.77,13.81V4.93c-3.29,1.16-6.55,2.3-9.83,3.45,0,.11,0,.21,0,.32,0,3.27,0,6.54,0,9.81,0,1.76-1.6,3.12-3.59,3.08-1.73-.04-3.21-1.29-3.34-2.81-.13-1.56,1.13-2.98,2.86-3.24,.81-.12,1.57,0,2.34,.35v-.32c0-3.52,0-7.05,0-10.57,0-.56,.14-.75,.74-.96C9.68,2.72,13.42,1.41,17.15,.1c.64-.23,1.17-.05,1.33,.45,.03,.1,.03,.2,.03,.3,0,4.53,0,11.07,0,15.6,0,1.75-1.59,3.11-3.57,3.07-1.91-.03-3.44-1.48-3.37-3.2,.09-2.14,2.7-3.52,4.93-2.61,.08,.03,.15,.06,.26,.11Z"/>
  </g>
</svg>