<?xml version="1.0" encoding="UTF-8"?>
<svg id="Layer_2" data-name="Layer 2" xmlns="http://www.w3.org/2000/svg" viewBox="0 0 21.78 26.81">
  <defs>
    <style>
      .cls-1 {
        fill: #fff;
      }

      .cls-2 {
        fill: #efefef;
      }

      .cls-3 {
        fill: #d2d2d2;
      }
    </style>
  </defs>
  <g id="Layer_1-2" data-name="Layer 1">
    <g>
      <path class="cls-3" d="M21.71,6.15l-.07-.07-.36-.37L16.18,.51l-.35-.36-.07-.07c-.05-.05-.11-.07-.18-.07H1.33C.6,0,0,.6,0,1.35V25.46c0,.74,.6,1.35,1.33,1.35H20.45c.73,0,1.33-.6,1.33-1.35V6.32c0-.06-.02-.12-.07-.17ZM15.83,.87l5.1,5.2h-3.59c-.83,0-1.51-.67-1.51-1.51V.87Zm5.45,24.59c0,.46-.37,.84-.83,.84H1.33c-.17,0-.33-.05-.46-.14-.04-.03-.09-.06-.12-.1-.04-.04-.07-.08-.1-.12-.05-.07-.08-.14-.11-.22,0-.02-.01-.05-.02-.08-.01-.05-.02-.11-.02-.17V1.35c0-.47,.37-.84,.83-.84H15.33V4.56c0,.51,.19,.97,.5,1.32,.05,.07,.11,.13,.18,.18,.35,.31,.82,.5,1.33,.5h3.94V25.46Z"/>
      <path class="cls-1" d="M21.28,6.57V25.46c0,.46-.37,.84-.83,.84H1.33c-.17,0-.33-.05-.46-.14-.04-.03-.09-.06-.12-.1-.04-.04-.07-.08-.1-.12-.05-.07-.08-.14-.11-.22,0-.02-.01-.05-.02-.08-.01-.05-.02-.11-.02-.17V1.35c0-.47,.37-.84,.83-.84H15.33V4.56c0,.51,.19,.97,.5,1.32,.05,.07,.11,.13,.18,.18,.35,.31,.82,.5,1.33,.5h3.94Z"/>
      <path class="cls-2" d="M20.93,6.07h-3.59c-.83,0-1.51-.67-1.51-1.51V.87l5.1,5.2Z"/>
    </g>
  </g>
</svg>