<?xml version="1.0" encoding="UTF-8"?>
<svg id="Layer_2" data-name="Layer 2" xmlns="http://www.w3.org/2000/svg" viewBox="0 0 13.04 21.19">
  <g id="Layer_1-2" data-name="Layer 1">
    <path d="M13.04,9.75v1.14c0,2.92-1.95,5.4-4.69,6.18v2.29c0,1.01-.82,1.83-1.83,1.83s-1.83-.82-1.83-1.83v-2.29c-2.74-.78-4.69-3.26-4.69-6.18v-1.14c0-1.01,.82-1.83,1.83-1.83,.12,0,.24,.01,.36,.04v-3.63C2.19,1.94,4.14,0,6.52,0c1.16,0,2.25,.45,3.06,1.27,.81,.81,1.26,1.9,1.26,3.06v3.63c.12-.02,.24-.04,.36-.04,1.01,0,1.83,.82,1.83,1.83Z"/>
  </g>
</svg>