<?xml version="1.0" encoding="UTF-8"?>
<svg id="Layer_2" data-name="Layer 2" xmlns="http://www.w3.org/2000/svg" viewBox="0 0 15.18 14.8">
  <defs>
    <style>
      .cls-1 {
        fill: red;
      }
    </style>
  </defs>
  <g id="Layer_1-2" data-name="Layer 1">
    <g>
      <path class="cls-1" d="M1.47,14.8H3.99c.96,0,1.47-.42,1.47-1.22V1.21c0-.83-.51-1.21-1.47-1.21H1.47C.51,0,0,.42,0,1.21V13.58c0,.8,.51,1.22,1.47,1.22Z"/>
      <path class="cls-1" d="M11.19,14.8h2.52c.96,0,1.47-.42,1.47-1.22V1.21c0-.83-.51-1.21-1.47-1.21h-2.52c-.96,0-1.47,.42-1.47,1.21V13.58c0,.8,.51,1.22,1.47,1.22Z"/>
    </g>
  </g>
</svg>